<svg width="426" height="290" viewBox="0 0 426 290" fill="none" xmlns="http://www.w3.org/2000/svg">
<mask id="mask0_2_172" style="mask-type:luminance" maskUnits="userSpaceOnUse" x="21" y="29" width="384" height="262">
<path d="M21.1016 29.1025H404.498V290.1H21.1016V29.1025Z" fill="white"/>
</mask>
<g mask="url(#mask0_2_172)">
<path d="M28.3015 125.402C32.2751 125.402 35.5014 128.629 35.5014 132.602C35.5014 136.576 32.2751 139.802 28.3015 139.802C24.3278 139.802 21.1016 136.576 21.1016 132.602C21.1016 128.629 24.3278 125.402 28.3015 125.402Z" fill="#B3C3C6"/>
<path d="M359.498 183.001C363.471 183.001 366.698 186.227 366.698 190.201C366.698 194.175 363.471 197.401 359.498 197.401C355.524 197.401 352.298 194.175 352.298 190.201C352.298 186.227 355.524 183.001 359.498 183.001Z" fill="#B3C3C6"/>
<path d="M296.499 30.0029C300.472 30.0029 303.699 33.2292 303.699 37.2029C303.699 41.1765 300.472 44.4028 296.499 44.4028C292.525 44.4028 289.299 41.1765 289.299 37.2029C289.299 33.2292 292.525 30.0029 296.499 30.0029Z" stroke="#B3C1C6" stroke-width="1.79998"/>
</g>
<mask id="mask1_2_172" style="mask-type:luminance" maskUnits="userSpaceOnUse" x="21" y="28" width="384" height="262">
<path d="M21.2998 28.8994H404.7V289.899H21.2998V28.8994Z" fill="white"/>
</mask>
<g mask="url(#mask1_2_172)">
<path d="M75.7241 52.0347C79.3472 47.3017 86.1317 46.4007 90.8646 50.0239C95.5975 53.647 96.4986 60.4315 92.8754 65.1644C89.2523 69.8973 82.4678 70.7984 77.7349 67.1752C73.0019 63.5521 72.1009 56.7676 75.7241 52.0347Z" stroke="#B3C1C6" stroke-width="1.8"/>
<path d="M43.2223 199.76L56.2477 209.392L55.1775 210.839L42.1521 201.207L43.2223 199.76ZM52.7573 198.975L54.2045 200.046L45.6426 211.624L44.1953 210.553L52.7573 198.975Z" fill="#CAD4D6"/>
<path d="M390.056 128.518L404.033 120.328L404.943 121.881L390.966 130.071L390.056 128.518ZM393.083 119.443L394.636 118.533L401.916 130.957L400.363 131.867L393.083 119.443Z" fill="#CAD4D6"/>
<path d="M203.525 46.744L214.77 58.4062L213.474 59.6555L202.23 47.9934L203.525 46.744ZM213.058 47.5544L214.308 48.8502L203.941 58.8452L202.692 57.5494L213.058 47.5544Z" fill="#CAD4D6"/>
</g>
<mask id="mask2_2_172" style="mask-type:luminance" maskUnits="userSpaceOnUse" x="0" y="0" width="426" height="291">
<path d="M0 0.00488281H426V290.005H0V0.00488281Z" fill="white"/>
</mask>
<g mask="url(#mask2_2_172)">
<mask id="mask3_2_172" style="mask-type:luminance" maskUnits="userSpaceOnUse" x="0" y="0" width="426" height="291">
<path d="M0 0.00488281H426V290.005H0V0.00488281Z" fill="white"/>
</mask>
<g mask="url(#mask3_2_172)">
<path d="M231.771 172.807L263.38 204.416L246.094 221.702L214.485 190.093L231.771 172.807Z" fill="#D7D7D7"/>
<path d="M263.636 192.791L302.178 231.334C306.081 235.236 306.081 241.573 302.178 245.476L286.555 261.099C282.653 265.001 276.316 265.001 272.413 261.099L233.871 222.556C229.968 218.654 229.968 212.317 233.871 208.414L249.494 192.791C253.396 188.889 259.733 188.889 263.636 192.791Z" fill="#BFBFC7"/>
<path d="M236.839 187.304C261.576 162.434 261.55 122.092 236.796 97.1952C212.042 72.2979 171.918 72.2849 147.191 97.1546C122.455 122.025 122.471 162.367 147.234 187.254C171.988 212.151 212.103 212.175 236.839 187.304Z" fill="#B1B1B6"/>
<path d="M154.718 106.839C174.23 87.3277 205.929 87.3431 225.459 106.873C244.99 126.404 245.005 158.103 225.493 177.614C205.982 197.126 174.283 197.11 154.753 177.58C135.222 158.05 135.207 126.351 154.718 106.839Z" fill="white"/>
</g>
<g opacity="0.92">
<path d="M175.544 128.62C177.997 128.62 179.989 132.416 179.989 137.091C179.989 141.766 177.997 145.562 175.544 145.562C173.091 145.562 171.1 141.766 171.1 137.091C171.1 132.416 173.091 128.62 175.544 128.62Z" fill="black"/>
</g>
<g opacity="0.92">
<path d="M203.582 128.62C206.035 128.62 208.027 132.416 208.027 137.091C208.027 141.766 206.035 145.562 203.582 145.562C201.129 145.562 199.138 141.766 199.138 137.091C199.138 132.416 201.129 128.62 203.582 128.62Z" fill="black"/>
</g>
<path d="M248 142.59C257.94 142.59 266 136.7 266 129.43C266 122.16 248 104.59 248 104.59C248 104.59 230 122.16 230 129.43C230 136.7 238.06 142.59 248 142.59Z" fill="url(#paint0_linear_2_172)"/>
<path d="M200.5 161.868C186.824 155.03 175.862 162.652 177.663 162.261C185.538 160.555 201.025 162.13 200.5 161.868Z" fill="#748394"/>
</g>
<path d="M184.246 266.499C195.195 266.499 204.085 267.985 204.085 269.815C204.085 271.644 195.195 273.13 184.246 273.13C173.298 273.13 164.408 271.644 164.408 269.815C164.408 267.985 173.298 266.499 184.246 266.499Z" fill="#D8DBDF"/>
<defs>
<linearGradient id="paint0_linear_2_172" x1="248.019" y1="114.354" x2="258.208" y2="142.59" gradientUnits="userSpaceOnUse">
<stop stop-color="#B0F9FF"/>
<stop offset="0.5" stop-color="#B6F3FE"/>
<stop offset="1" stop-color="#BCEEFD"/>
</linearGradient>
</defs>
</svg>
